<svg id="Layer_1" data-name="Layer 1" xmlns="http://www.w3.org/2000/svg" viewBox="0 0 150 51"><defs><style>.cls-1{fill:#1d1d1b;}.cls-2{fill:#ef4130;}</style></defs><title>Logo_closer </title><path class="cls-1" d="M15.3816,22.7576a16.3416,16.3416,0,0,1,7.75,2.027L23.9666,19.3c-2.2655-1.3116-5.3656-1.9078-9.1812-1.9078a14.95,14.95,0,0,0-6.32,1.1924,12.5638,12.5638,0,0,0-4.65,3.2194A16.5036,16.5036,0,0,0,.9539,26.6924a20.6278,20.6278,0,0,0,0,12.4006,15.1193,15.1193,0,0,0,2.8617,4.8887,11.6673,11.6673,0,0,0,4.65,3.2194,14.95,14.95,0,0,0,6.32,1.1924,16.226,16.226,0,0,0,9.062-2.2655l-.7154-5.1272a15.9915,15.9915,0,0,1-7.75,2.027c-2.981,0-5.2465-.9539-6.6773-2.7424-1.55-1.7886-2.2655-4.2926-2.2655-7.5119s.7154-5.7234,2.2655-7.512A8.7977,8.7977,0,0,1,15.3816,22.7576Z"/><path class="cls-1" d="M36.01,42.5509a2.6539,2.6539,0,0,1-.5961-1.55,20.31,20.31,0,0,1-.1193-2.9809V2.4873H29.213V41.12a7.304,7.304,0,0,0,1.9078,5.2465c1.1924,1.4308,3.2194,2.1462,5.8426,2.1462h2.0271l.8346-5.0079a12.3013,12.3013,0,0,1-2.3847-.2385A1.4422,1.4422,0,0,1,36.01,42.5509Z"/><path class="cls-1" d="M67.8458,22.0421a13.7592,13.7592,0,0,0-4.7695-3.3386,14.7577,14.7577,0,0,0-6.2-1.1924,14.7577,14.7577,0,0,0-6.2,1.1924,13.2826,13.2826,0,0,0-4.65,3.3386,14.5712,14.5712,0,0,0-2.9809,4.8887,17.1763,17.1763,0,0,0-1.0731,6.0811,17.3625,17.3625,0,0,0,1.0731,6.2,14.5707,14.5707,0,0,0,2.9809,4.8888,12.5642,12.5642,0,0,0,4.65,3.2193,14.7577,14.7577,0,0,0,6.2,1.1924,14.7577,14.7577,0,0,0,6.2-1.1924,13.7565,13.7565,0,0,0,4.7695-3.3386,14.5693,14.5693,0,0,0,2.9809-4.8887,17.7669,17.7669,0,0,0,0-12.1622A13.4824,13.4824,0,0,0,67.8458,22.0421Zm-4.531,18.3625a8.1111,8.1111,0,0,1-6.4388,2.7425,8.111,8.111,0,0,1-6.4388-2.7425,11.7523,11.7523,0,0,1-2.2655-7.5119c0-3.2194.7154-5.7234,2.2655-7.5119a7.8631,7.8631,0,0,1,6.32-2.7425,7.8631,7.8631,0,0,1,6.32,2.7425,11.52,11.52,0,0,1,2.2655,7.5119C65.461,36.1121,64.7456,38.6161,63.3148,40.4046Z"/><path class="cls-1" d="M93.72,33.37A10.5446,10.5446,0,0,0,90.9777,31.7a14.9526,14.9526,0,0,0-2.9809-1.0731l-3.6963-1.1924a4.9294,4.9294,0,0,1-2.6232-1.55,3.1209,3.1209,0,0,1-.5962-2.027,3.1223,3.1223,0,0,1,1.4308-2.8617,7.8326,7.8326,0,0,1,4.0541-.9539,11.4676,11.4676,0,0,1,7.6311,2.8617l.7155-5.4849a18.2515,18.2515,0,0,0-8.5851-2.027,15.8546,15.8546,0,0,0-5.0079.7154,9.6452,9.6452,0,0,0-3.4579,1.9078,7.8745,7.8745,0,0,0-2.027,2.8617,8.7109,8.7109,0,0,0-.7155,3.5771,7.9629,7.9629,0,0,0,.7155,3.5771,6.7793,6.7793,0,0,0,2.3847,2.504,17.4777,17.4777,0,0,0,4.2925,2.027c1.4309.477,2.6232.8347,3.8156,1.1924A11.7587,11.7587,0,0,1,89.07,37.066a3.1673,3.1673,0,0,1,1.0731,2.6232,3.3325,3.3325,0,0,1-1.3116,2.6232,7.5319,7.5319,0,0,1-4.0541.9539,15.8584,15.8584,0,0,1-5.3656-.9539,14.999,14.999,0,0,1-3.9349-2.027L74.7615,45.89c2.504,1.6693,5.8426,2.504,10.1352,2.504a16.3834,16.3834,0,0,0,5.8426-.8347,9.5559,9.5559,0,0,0,3.4578-2.1462,5.8774,5.8774,0,0,0,1.6694-2.8617,9.1315,9.1315,0,0,0,.4769-2.9809,7.0717,7.0717,0,0,0-.8346-3.6964A5.1715,5.1715,0,0,0,93.72,33.37Z"/><path class="cls-1" d="M126.63,24.9038a13.1784,13.1784,0,0,0-2.6232-4.054,12.4328,12.4328,0,0,0-4.1733-2.6233,15.5279,15.5279,0,0,0-11.3275.2385,14.1541,14.1541,0,0,0-4.531,3.2194,14.2975,14.2975,0,0,0-2.8617,4.8887,17.1759,17.1759,0,0,0-1.0732,6.0811,17.3629,17.3629,0,0,0,1.0732,6.2,15.3965,15.3965,0,0,0,3.1,5.008,15.275,15.275,0,0,0,5.1272,3.3386,17.6942,17.6942,0,0,0,6.7965,1.1924,23.518,23.518,0,0,0,10.0159-2.2655l-.5962-5.008a20.3668,20.3668,0,0,1-8.8235,2.0271q-9.4794,0-10.3736-9.6582h20.8665c.1192-.477.1192-1.0732.2384-1.55,0-.5962.1193-1.0731.1193-1.6693A13.04,13.04,0,0,0,126.63,24.9038Zm-19.7934,4.4118c.9539-4.4118,3.5771-6.558,7.87-6.558q3.3983,0,5.0079,1.7885a6.8212,6.8212,0,0,1,1.6693,4.77Z"/><path class="cls-2" d="M150,17.3919l-1.3116,6.32h-1.3116a8.8828,8.8828,0,0,0-4.65,1.1924,8.02,8.02,0,0,0-2.504,2.6232V48.5127h-6.32V28.004c0-.8347,4.77-9.8967,15.1431-10.4929H150Z"/><circle class="cls-2" cx="133.903" cy="13.2186" r="6.3196"/></svg>